<svg width="152" height="128" xmlns="http://www.w3.org/2000/svg"><g transform="translate(.966 .138)" fill="none" fill-rule="evenodd"><path d="m18.212 23.328-.146-.67-1.998-9.163-5.12-10.158L7.474 1.19l-2.895-.117-2.994.748L.7 3.917.444 6.439.82 8.81l2.111 2.42 2.027 1.091 2.52.99 2.825 1.602 2.06 1.602 1.516 1.824 1.618 2.267 2.716 2.722Z" stroke="#2A2A2A" stroke-width="1.1"/><path d="M18.134 23.351s29.201-2.798 45.26-4.009c.34-.025 2.797.297 2.797.297s2.049 1.757 2.128 2.146a1249.35 1249.35 0 0 0 2.368 11.122l3.76 13.357 5.942 16.05 6.906 9.51 7.694 7.346L98 82.525l.955 3.138 5.245 2.538 6.928 2.555 8.528.256 5.617-.511 5.866-.968 3.387-.036 2.418.716 2.588 1.635 1.498 1.584 1.6 4.022 1.175 5.027-7.21 3.387-16.492 9.064-23.333 1.635-16.162-1.012-14.72-3.782-12.252-1.533-15.743-1.297-16.557.46s-7.865-2.197-8.171-2.197c-.306 0-2.706-3.172-2.706-3.172l-1.14-2.621.255-5.234.867-7.684 2.113-9.021 2.555-7.278 3.32-7.058 1.073-4.789.426-13.284-.478-8.607-.612-7.975-.704-7.132Z" fill="#CD2121"/><path d="m21.687 74.664-2.447 4.369-1.853 8.07-.504 5.78 1.128 1.124 1.373-1.737.363-3.804.702-4.996.84-4.15 1.138-4.319.059-1.514-.8 1.177Zm91.485 23.87-8.215-.284-11.275.158-9.271-1.406-5.847-2.441-10.604-3.019 2.884 4.273 3.046 2.177s7.6 1.939 8.054 1.979c.455.04 9.424 1.847 9.424 1.847s8.342.265 8.797.305c.454.04 6.26-.648 6.85-.596.59.052 4.342-1.375 4.342-1.375l1.815-1.618Z" opacity=".266" fill="#D8D8D8"/><path d="m144.438 100.873 1.039 2.095 1.876.355 1.18 2.556-.205 2.829-19.468 8.432-17.939 5.4-14.822.205-11.906.549s-13.73-3.322-14.006-3.322c-.275 0-8.341-1.687-8.341-1.687l-13.396-.549-18.363.097L21 116.71l-11.13-2.914-2.453-4.04.273-2.686 2.254-.766.477-2.318 2.588 1.227 4.189.97 8.548.358s11.371-.186 11.371.172c0 .357 11.76-.085 11.76-.085l5.684.424 5.396 1.431 6.415.984 7.73 1.364 11.674 2.22 7.099 1.399 6.448-.307 13.007-2.458 8.714-1.993 7.987-2.863 7.407-2.777 8.001-3.18Z" fill="#101010"/><path d="M7.499 109.788 6.274 123.9l8.617 3.271 3.65-.107 1.434-1.232 1.016 1.427 6.3.168 1.429-1.502 1.092 1.67 7.126-.372 1.297-1.671 1.083 1.461 7.044.271 5.314-7.4 14.37.716 16.546 5.35 8.75-.066 1.664 1.707 4.085-.204 5.35-.445.852-1.436 1.807 1.498 7.294-1.774.92-1.569 1.74 1.707 6.514-1.773.954-1.943 1.159 1.161 7.183-2.05.444-1.129 1.669.475 6.095-1.977.715-2.014 1.705.818 7.565-3.583 1.256-2.325-1.705-5.432-3.507 2.955-4.528 2.545-6.891 2.315-8 2.49-6.65 1.813-10.46 1.942-9.195.854-10.082.409-8.54-1.263-8.515-1.67-8.382-2.25-9.337-1.297-5.932-.752-8.413.102-9.842-.24-10.557-.475-7.53-.992-4.748-2.293Z" fill="#3E2D25"/><path d="M59.71 20.961h-2.601l-.137 6.428v4.353l.137 4.696 1.032 8.947.921 7.278 1.805 6.253 1.633 4.806 3.201 4.434 3.852 4.138 3.561 3.172 4.153 3.22 5.092 3.102 5.209 3.193 4.324 5.624 3.303 4.276 1.878 2.846.67-1.822 1.167-4.604-.399-3.82-1.438-4.376-5.278-4.875-7.048-6.118-5.243-7.229-4.374-9.596-3.322-11.753-2.964-9.767-1.495-9.79-1.123-3.016-2.777-.386-3.74.386Zm-40.745 2.802s.527 4.65.664 6.716c.243 3.679.952 14.604.952 14.604l.404 9.229.477 7.293-1.512 8.47-1.499 5.23-2.81 7.173-1.312 4.86-.51 8.267.307 7.875 1.227 2.456" stroke="#212121" stroke-width=".5" stroke-dasharray="1.1"/><path d="m62.953 27.072 7.63-1.993m-7.758 11.335 9.92-3.31m-8.818 13.241 10.47-4.623m-8.266 14.554 11.022-6.62M70.54 64l9.92-6.62m-3.307 13.24L83.766 64m1.103 12.138 3.306-5.517m4.409 11.034 2.204-4.414" stroke="#2E2E2E" stroke-width="2.2" stroke-linecap="round"/><ellipse fill="#2E2E2E" cx="62.825" cy="27.586" rx="2.204" ry="2.207"/><ellipse fill="#2E2E2E" cx="62.825" cy="36.414" rx="2.204" ry="2.207"/><ellipse fill="#2E2E2E" cx="63.927" cy="46.345" rx="2.204" ry="2.207"/><ellipse fill="#2E2E2E" cx="66.131" cy="56.276" rx="2.204" ry="2.207"/><ellipse fill="#2E2E2E" cx="70.54" cy="64" rx="2.204" ry="2.207"/><ellipse fill="#2E2E2E" cx="77.153" cy="70.621" rx="2.204" ry="2.207"/><ellipse fill="#2E2E2E" cx="84.869" cy="76.138" rx="2.204" ry="2.207"/><ellipse fill="#2E2E2E" cx="92.584" cy="81.655" rx="2.204" ry="2.207"/><path d="m13.677 77.44 2.69 1.891 3.252.785 3.747 1.022 7.525 2.967 6.823 3.92 5.564 3.63 3.334 4.054 1.687 3.427.97 3.646-.102 3.342.051 1.603m45.297-14.039-4.426-.102-6.008-.307-6.417.187-5.942.766-4.002 1.38-3.558 1.909-3.015 2.573-3.456 2.625-4.17 4.38" stroke="#212121" stroke-width=".5" stroke-dasharray="1.1"/><path d="m95.848 95.53-6.366-.36H81.84l-6.297.358-4.188 1.193-3.696 1.263-4.378 3.426-4.607 3.307-2.078 3.084" stroke="#212121" stroke-width=".5" stroke-dasharray="1.1"/><path d="m97.168 97.766-7.338-.376-7.234-.204-5.378.664-4.12.87-4.101 1.55-4.12 1.994-2.979 3.015-3.336 3.018" stroke="#212121" stroke-width=".5" stroke-dasharray="1.1"/><path d="m10.24 106.513 2.725 1.485 7.234 1.533 7.063.102 8.816.255 9.005.307 7.117.307 4.408.613 10.334 2.158 7.438 1.023L82.04 116l5.276.971 5.45.448 6.246.103s6.297-.598 6.64-.598c.341 0 6.416-1.585 6.416-1.585l6.147-1.43 9.078-2.476 5.6-2.011 5.55-2.709 4.68-2.489 2.469-1.5" stroke="#DB9F2D" stroke-width=".55" stroke-dasharray="4.4,1.1"/><path d="M122.755 96.6c2.158-.6 7.078-2.714 7.078-2.714l4.596-1.142 1.925 1.09.904 1.588-.205 1.262-1.94.631-2.927-.204-2.877-.358-2.877-.153s-4.77.303-3.677 0Z" opacity=".266" fill="#D8D8D8"/></g></svg>